<svg width="2131" height="951" viewBox="0 0 2131 951" fill="none" xmlns="http://www.w3.org/2000/svg">
<path d="M461.616 609.429C372.379 704.243 523.715 756.246 597.619 783.211C836.505 870.372 1113.68 879.517 1363.77 860.28C1495.93 850.114 1626.42 823.516 1756.67 799.834C1853.35 782.256 1949.92 763.894 2030.94 703.876C2155.78 611.406 2156.36 444.059 2060.41 334.4C1964.62 224.922 1815.91 174.848 1685.65 120.572C1518.5 50.9262 1356.32 17.9261 1176.39 7.99135C829.354 -11.1701 475.712 11.6226 170.72 194.618C-21.9234 310.204 -62.1646 555.866 116.318 703.876C214.316 785.142 352.324 824.59 472.194 861.791C611.72 905.092 750.967 940.321 896.827 949.437" stroke="black" stroke-width="3" stroke-linecap="round"/>
</svg>
